<?xml version="1.0" encoding="UTF-8"?><svg xmlns="http://www.w3.org/2000/svg" viewBox="0 0 136 136"><defs><style>.cls-1{fill:#009bf4;}.cls-2{fill:#99d7fb;}</style></defs><g id="Icon"><path class="cls-1" d="m134,71.29c0,11.12-9.03,20.21-20.14,20.25h-9.86c-7.37,0-13.52,5.35-14.77,12.37h5.75l-8.98,15.55-7.46-12.92-1.52-2.63h6.15c.37-2.95,1.35-5.72,2.83-8.16,3.67-6.11,10.36-10.21,18-10.21h9.85c7.8-.03,14.15-6.42,14.15-14.25s-6.36-14.25-14.19-14.25h-3.57l.4-3.36c.14-1.16.21-2.29.21-3.47,0-15.26-12.36-27.67-27.55-27.67-9.64,0-18.7,5.15-23.63,13.45l-1.57,2.64-2.6-1.64c-3.07-1.93-6.67-2.95-10.4-2.95-10.98,0-19.91,8.97-19.91,20v3h-3c-7.83,0-14.19,6.39-14.19,14.25s6.36,14.25,14.19,14.25h9.81c7.37,0,13.52-5.35,14.77-12.37h-5.75l8.98-15.55,7.46,12.92,1.52,2.63h-6.15c-.37,2.95-1.35,5.72-2.83,8.16-3.67,6.11-10.36,10.21-18,10.21h-9.81c-11.13,0-20.19-9.08-20.19-20.25,0-10.2,7.55-18.66,17.34-20.05,1.39-13.02,12.41-23.2,25.76-23.2,3.86,0,7.61.84,11.01,2.45,6.24-8.67,16.41-13.95,27.19-13.95,18.5,0,33.55,15.1,33.55,33.67,0,.35,0,.71-.02,1.06,9.71,1.46,17.17,9.88,17.17,20.02Z"/></g><g id="_"><polygon class="cls-2" points="80 85.54 80 91.54 71 91.54 71 100.54 65 100.54 65 91.54 56 91.54 56 85.54 65 85.54 65 76.54 71 76.54 71 85.54 80 85.54"/></g></svg>